<svg xmlns="http://www.w3.org/2000/svg" viewBox="0 0 40.0000728 39.9999935" fill="currentColor"><path d="M7.0087 35.2138c-.0054 0-.0106-.002-.0147-.0055-2.1967-1.8768-3.9598-4.2081-5.1673-6.833C.618 25.7479-.0052 22.8893.0000665 19.9972c0-5.525 2.2418335-10.5249 5.8585335-14.1416 7.6669-7.6641 20.0431-7.8249 27.9075-.3641 7.8636 7.4616 8.352 19.829 1.1001 27.8864-7.25 8.0562-19.5959 8.8721-27.8428 1.8413-.0041-.0035-.0093-.0054-.0147-.0054ZM5.3895 21.2305c.0016 0 .0031-.0006.0043-.0016 2.2074-1.9581 3.7744-4.565 7.9401-4.565 6.6668 0 6.6668 6.6666 13.3337 6.6666 5.9665 0 8.2439-8.6823 4.2586-13.1227-2.9662-3.3051-7.3924-5.2292-12.1588-4.8272-8.0708.6807-14.0617 7.774-13.3843 15.844.0003.0033.0031.0059.0064.0059Z"/></svg>
