<svg xmlns="http://www.w3.org/2000/svg" viewBox="0 0 347 336"><g fill="none" fill-rule="evenodd"><rect width="347" height="336" fill="currentColor" rx="96"/><path fill="#FFF" fill-rule="nonzero" d="M145.736 246v-27.084h36.852c6.734 0 12.025-1.9795 15.873-5.9385 3.848-3.959 5.772-8.8615 5.772-14.7075 0-3.922-.8695-7.4555-2.6085-10.6005-1.739-3.145-4.218-5.6055-7.437-7.3815-3.219-1.776-7.0855-2.664-11.5995-2.664h-36.852v-26.418h33.966c5.698 0 10.323-1.443 13.875-4.329 3.552-2.886 5.328-7.252 5.328-13.098 0-5.846-1.776-10.212-5.328-13.098-3.552-2.886-8.177-4.329-13.875-4.329h-33.966V89.268h40.515c10.064 0 18.6295 1.8685 25.6965 5.6055s12.4505 8.695 16.1505 14.874c3.7 6.179 5.55 13.0425 5.55 20.5905 0 9.694-3.1265 17.871-9.3795 24.531s-15.4105 11.211-27.4725 13.653l.777-11.655c13.246 2.516 23.458 7.622 30.636 15.318 7.178 7.696 10.767 17.168 10.767 28.416 0 8.584-2.1275 16.2985-6.3825 23.1435-4.255 6.845-10.3415 12.2655-18.2595 16.2615-7.918 3.996-17.39 5.994-28.416 5.994h-40.182Zm-26.751 0V89.268h34.521V246h-34.521Z"/></g></svg>
