<svg xmlns="http://www.w3.org/2000/svg" viewBox="0 0 2023 336"><g fill="none" fill-rule="evenodd"><rect width="347" height="336" fill="#030712" rx="96"/><g fill-rule="nonzero"><path fill="#FFF" d="M145.736 246v-27.084h36.852c6.734 0 12.025-1.9795 15.873-5.9385 3.848-3.959 5.772-8.8615 5.772-14.7075 0-3.922-.8695-7.4555-2.6085-10.6005-1.739-3.145-4.218-5.6055-7.437-7.3815-3.219-1.776-7.0855-2.664-11.5995-2.664h-36.852v-26.418h33.966c5.698 0 10.323-1.443 13.875-4.329 3.552-2.886 5.328-7.252 5.328-13.098 0-5.846-1.776-10.212-5.328-13.098-3.552-2.886-8.177-4.329-13.875-4.329h-33.966V89.268h40.515c10.064 0 18.6295 1.8685 25.6965 5.6055s12.4505 8.695 16.1505 14.874c3.7 6.179 5.55 13.0425 5.55 20.5905 0 9.694-3.1265 17.871-9.3795 24.531s-15.4105 11.211-27.4725 13.653l.777-11.655c13.246 2.516 23.458 7.622 30.636 15.318 7.178 7.696 10.767 17.168 10.767 28.416 0 8.584-2.1275 16.2985-6.3825 23.1435-4.255 6.845-10.3415 12.2655-18.2595 16.2615-7.918 3.996-17.39 5.994-28.416 5.994h-40.182Zm-26.751 0V89.268h34.521V246h-34.521Zm153-25.732v-106h23.586207v106H271.985Zm18.04532 0v-20.344193H347.985V220.268h-57.95468Zm-18-43.216714V157.30766h53v19.743626h-53Zm18-42.439093V114.268h57.131035v20.344193H290.03032Z"/><path fill="#000" d="M372 221V115h16.614108l7.174274 21.169972V221H372Zm73.630705 0-62.831535-80.025496L388.614108 115l62.831535 80.025496L445.630705 221Zm0 0-6.419087-21.094901V115H463v106h-17.369295Zm67.486559 2c-6.692725 0-12.511401-1.230126-17.456026-3.690377-4.944626-2.460251-9.165038-5.899581-12.661238-10.317991l15.65798-15.213389c1.798046 2.51046 3.933225 4.41841 6.405538 5.723849 2.472313 1.305439 5.256786 1.958159 8.35342 1.958159 2.946797 0 5.531488-.615063 7.754072-1.845188 2.222584-1.230126 3.970684-3.037657 5.244299-5.422594 1.273616-2.384938 1.910424-5.334728 1.910424-8.849373V115H552v69.062762c0 7.933054-1.585776 14.811715-4.757329 20.635983-3.171553 5.824268-7.65418 10.330544-13.447883 13.518828C528.001086 221.405858 521.108578 223 513.117264 223ZM566 221l42.015032-106h21.345741L671 221h-24.953472L614.2534 133.016997h8.568361L590.502505 221H566Zm23.901217-19.143059V182.63881h57.798855v19.218131h-57.798855ZM690 221V115h16.960581l41.91148 65.086402h-8.668741L782.039419 115H799v106h-23.594053v-66.212465l4.14592 1.126063-27.21231 42.264872h-15.679114l-27.13693-42.264872 4.07054-1.126063V221zm136 0V115h24v106zm52 0V115h16.614108l7.174274 21.169972V221H878Zm73.630705 0-62.831535-80.025496L894.614108 115l62.831535 80.025496L951.630705 221Zm0 0-6.419087-21.094901V115H969v106h-17.369295Zm95.074855 1c-7.918559 0-15.260768-1.372482-22.026625-4.117445-6.765857-2.744963-12.679718-6.600389-17.741582-11.566278-5.061864-4.965888-8.983555-10.767742-11.765074-17.405563C992.39076 182.272894 991 175.111035 991 167.425137c0-7.735805 1.39076-14.910142 4.172279-21.523008 2.781519-6.612866 6.690681-12.364812 11.727486-17.255838 5.036805-4.8910254 10.925607-8.721497 17.666406-11.4914146C1031.306969 114.3849588 1038.636648 113 1046.555208 113c8.419733 0 15.912294 1.3475275 22.477682 4.0425824 6.565387 2.695055 12.328895 6.3882784 17.290524 11.0796706l-15.862177 15.870879c-2.75646-2.994506-6.11433-5.340202-10.07361-7.037088-3.959279-1.696886-8.570086-2.54533-13.832419-2.54533-4.610807 0-8.833203.773581-12.667189 2.320742-3.833986 1.547161-7.141739 3.780563-9.923258 6.700206-2.781519 2.919643-4.93657 6.413233-6.465153 10.480769-1.528582 4.067537-2.292873 8.571772-2.292873 13.512706 0 4.990843.764291 9.520032 2.292873 13.587569 1.528583 4.067537 3.683634 7.561126 6.465153 10.480769 2.781519 2.919643 6.089272 5.165522 9.923258 6.737638 3.833986 1.572115 8.056382 2.358173 12.667189 2.358173 5.462803 0 10.198903-.835966 14.2083-2.507899 4.009397-1.671932 7.442443-4.030105 10.299139-7.074519L1087 206.877747c-5.061864 4.741301-10.875489 8.447001-17.440877 11.117102C1062.993735 220.66495 1055.375881 222 1046.70556 222Zm78.47514-44.616147v-17.491502h22.4807c4.72749 0 8.37369-1.188621 10.9386-3.565864 2.56491-2.377242 3.84737-5.6178 3.84737-9.721671 0-3.853636-1.26988-7.031634-3.80965-9.533994-2.53977-2.502361-6.17339-3.753542-10.90088-3.753542h-22.55614V115h25.34737c7.04094 0 13.2269 1.338763 18.55789 4.016289 5.331 2.6775259 9.49269 6.355996 12.48509 11.035411 2.9924 4.679414 4.4886 10.072002 4.4886 16.177762 0 6.255902-1.50877 11.711048-4.52632 16.365439-3.01754 4.654391-7.2421 8.282814-12.67368 10.885269-5.43158 2.602455-11.79357 3.903683-19.08597 3.903683h-24.59298ZM1107 221V115h23.76316v106H1107Zm57.93684 0-33.11754-45.643059 21.65088-5.855525L1193 221h-28.06316Zm96.32713 2c-7.99461 0-15.39843-1.406393-22.21144-4.219178-6.81302-2.812785-12.77127-6.718037-17.87475-11.715754-5.10348-4.997716-9.07565-10.849315-11.9165-17.554794-2.84085-6.705479-4.26128-13.925799-4.26128-21.660959 0-7.785388 1.40786-14.993151 4.22357-21.623288 2.81571-6.630137 6.75017-12.444064 11.80337-17.44178 5.05319-4.9977173 10.97373-8.8778543 17.76161-11.6404114C1245.57643 114.3812785 1252.96768 113 1260.96229 113c7.99461 0 15.38586 1.3812785 22.17374 4.1438356 6.78788 2.7625571 12.72098 6.6426941 17.79932 11.6404114 5.07834 4.997716 9.02537 10.836758 11.84108 17.517123C1315.59214 152.981735 1317 160.214612 1317 168c0 7.73516-1.40786 14.942922-4.22357 21.623288-2.81571 6.680365-6.75017 12.519406-11.80337 17.517123-5.05319 4.997717-10.96116 8.890411-17.7239 11.678082C1276.48642 221.606164 1269.15802 223 1261.26397 223Zm-.30168-21.547945c6.38563 0 11.95421-1.406393 16.70572-4.219178 4.75152-2.812786 8.44714-6.743151 11.08687-11.791096 2.63973-5.047945 3.9596-10.912101 3.9596-17.592466 0-4.972603-.75421-9.493151-2.26263-13.561644s-3.67048-7.584475-6.48619-10.547945c-2.81572-2.96347-6.15937-5.236301-10.03098-6.818493-3.8716-1.582192-8.19573-2.373288-12.97239-2.373288-6.33535 0-11.87879 1.381279-16.6303 4.143836-4.75152 2.762557-8.44714 6.642694-11.08687 11.640411-2.63973 4.997717-3.9596 10.836758-3.9596 17.517123 0 5.022831.75421 9.606164 2.26263 13.75s3.65791 7.684932 6.44848 10.623288c2.79058 2.938356 6.13423 5.211187 10.03098 6.818493 3.89674 1.607306 8.2083 2.410959 12.93468 2.410959ZM1331 204.55949l53.46189-73.11898H1413l-53.53719 73.11898H1331ZM1331 221v-16.44051l15.66208-3.828612h65.05785V221H1331Zm2.93664-85.730878V115H1413v16.44051l-15.88797 3.828612h-63.17539ZM1424 221l42.01503-106h21.34574L1529 221h-24.95347l-31.79313-87.983003h8.56836L1448.50251 221H1424Zm23.90122-19.143059V182.63881h57.79885v19.218131h-57.79885ZM1561.13022 221V116.5014164h23.66444V221h-23.66444ZM1528 135.644476V115h90v20.644476h-90ZM1642.53719 223c-3.91736 0-7.15289-1.353207-9.70661-4.059621-2.55372-2.706413-3.83058-6.007226-3.83058-9.902439 0-4.005871 1.27686-7.346996 3.83058-10.023374 2.55372-2.676377 5.78925-4.014566 9.70661-4.014566 3.91736 0 7.1405 1.338189 9.66942 4.014566 2.52893 2.676378 3.79339 6.017503 3.79339 10.023374 0 3.895213-1.26446 7.196026-3.79339 9.902439-2.52892 2.706414-5.75206 4.059621-9.66942 4.059621Zm86.16837-1c-7.91856 0-15.26077-1.372482-22.02662-4.117445-6.76586-2.744963-12.67972-6.600389-17.74159-11.566278-5.06186-4.965888-8.98355-10.767742-11.76507-17.405563-2.78152-6.63782-4.17228-13.799679-4.17228-21.485577 0-7.735805 1.39076-14.910142 4.17228-21.523008 2.78152-6.612866 6.69068-12.364812 11.72749-17.255838 5.0368-4.8910254 10.9256-8.721497 17.6664-11.4914146C1713.30697 114.3849588 1720.63665 113 1728.55521 113c8.41973 0 15.91229 1.3475275 22.47768 4.0425824 6.56539 2.695055 12.3289 6.3882784 17.29052 11.0796706l-15.86217 15.870879c-2.75646-2.994506-6.11433-5.340202-10.07361-7.037088-3.95928-1.696886-8.57009-2.54533-13.83242-2.54533-4.61081 0-8.83321.773581-12.66719 2.320742-3.83399 1.547161-7.14174 3.780563-9.92326 6.700206-2.78152 2.919643-4.93657 6.413233-6.46515 10.480769-1.52858 4.067537-2.29288 8.571772-2.29288 13.512706 0 4.990843.7643 9.520032 2.29288 13.587569 1.52858 4.067537 3.68363 7.561126 6.46515 10.480769 2.78152 2.919643 6.08927 5.165522 9.92326 6.737638 3.83398 1.572115 8.05638 2.358173 12.66719 2.358173 5.4628 0 10.1989-.835966 14.2083-2.507899 4.0094-1.671932 7.44244-4.030105 10.29914-7.074519L1769 206.877747c-5.06186 4.741301-10.87549 8.447001-17.44088 11.117102C1744.99374 220.66495 1737.37588 222 1728.70556 222Zm106.55841 1c-7.99461 0-15.39843-1.406393-22.21144-4.219178-6.81302-2.812785-12.77127-6.718037-17.87475-11.715754-5.10348-4.997716-9.07565-10.849315-11.9165-17.554794-2.84085-6.705479-4.26128-13.925799-4.26128-21.660959 0-7.785388 1.40786-14.993151 4.22357-21.623288 2.81571-6.630137 6.75017-12.444064 11.80337-17.44178 5.05319-4.9977173 10.97373-8.8778543 17.76161-11.6404114C1819.57643 114.3812785 1826.96768 113 1834.96229 113c7.99461 0 15.38586 1.3812785 22.17374 4.1438356 6.78788 2.7625571 12.72098 6.6426941 17.79932 11.6404114 5.07834 4.997716 9.02537 10.836758 11.84108 17.517123C1889.59214 152.981735 1891 160.214612 1891 168c0 7.73516-1.40786 14.942922-4.22357 21.623288-2.81571 6.680365-6.75017 12.519406-11.80337 17.517123-5.05319 4.997717-10.96116 8.890411-17.7239 11.678082C1850.48642 221.606164 1843.15802 223 1835.26397 223Zm-.30168-21.547945c6.38563 0 11.95421-1.406393 16.70572-4.219178 4.75152-2.812786 8.44714-6.743151 11.08687-11.791096 2.63973-5.047945 3.9596-10.912101 3.9596-17.592466 0-4.972603-.75421-9.493151-2.26263-13.561644s-3.67048-7.584475-6.48619-10.547945c-2.81572-2.96347-6.15937-5.236301-10.03098-6.818493-3.8716-1.582192-8.19573-2.373288-12.97239-2.373288-6.33535 0-11.87879 1.381279-16.6303 4.143836-4.75152 2.762557-8.44714 6.642694-11.08687 11.640411-2.63973 4.997717-3.9596 10.836758-3.9596 17.517123 0 5.022831.75421 9.606164 2.26263 13.75s3.65791 7.684932 6.44848 10.623288c2.79058 2.938356 6.13423 5.211187 10.03098 6.818493 3.89674 1.607306 8.2083 2.410959 12.93468 2.410959ZM1914 221V115h16.96058l41.91148 65.086402h-8.66874L2006.03942 115H2023v106h-23.59405v-66.212465l4.14592 1.126063-27.21231 42.264872h-15.67912l-27.13693-42.264872 4.07054-1.126063V221z"/></g></g></svg>