<svg xmlns="http://www.w3.org/2000/svg" viewBox="0 0 4094.625 1083"><defs><linearGradient id="a" x1="50%" x2="50%" y1="0%" y2="100%"><stop offset="0%" stop-color="#3C82F7"/><stop offset="100%" stop-color="#2463EC"/></linearGradient></defs><g fill="none" fill-rule="evenodd"><rect width="1082" height="1082" x=".5" y=".5" fill="url(#a)" stroke="#979797" rx="224"/><g fill="#FFF"><path d="M541.5 169C747.226069 169 914 335.773931 914 541.5S747.226069 914 541.5 914 169 747.226069 169 541.5 335.773931 169 541.5 169Zm1 93C387.584128 262 262 387.584128 262 542.5 262 697.415872 387.584128 823 542.5 823 697.415872 823 823 697.415872 823 542.5 823 387.584128 697.415872 262 542.5 262Z"/><path d="M542 355c19.329966 0 35 15.670034 35 35v117h118c19.329966 0 35 15.670034 35 35s-15.670034 35-35 35H542c-19.329966 0-35-15.670034-35-35 0-1.919438.15451-3.802788.45177-5.638291l-.364426-146.361818c-.047637-19.08891 15.233528-34.637904 34.248197-34.993664L542 355Z"/></g><path fill="#000" fill-rule="nonzero" d="M1432.3125 803V282.5h49.5L1503 364.625V803h-70.6875Zm360.375 0L1472.625 376.625l9.1875-94.125 320.0625 426.375-9.1875 94.125Zm0 0L1771.5 725.9375V282.5h70.6875V803h-49.5Zm312.6875 7.5c-34.625 0-65.96875-8.28125-94.03125-24.84375S1961 746.6875 1944.5 718.4375s-24.75-59.75-24.75-94.5c0-34.625 8.25-65.8125 24.75-93.5625s38.78125-49.875 66.84375-66.375 59.40625-24.75 94.03125-24.75c34.875 0 66.34375 8.15625 94.40625 24.46875s50.34375 38.4375 66.84375 66.375 24.75 59.21875 24.75 93.84375c0 34.875-8.25 66.40625-24.75 94.59375s-38.78125 50.5625-66.84375 67.125S2140.25 810.5 2105.375 810.5Zm0-65.0625c22.625 0 42.71875-5.21875 60.28125-15.65625s31.3125-24.875 41.25-43.3125S2221.8125 647.125 2221.8125 623.75c0-23.125-5.0625-43.625-15.1875-61.5s-23.875-32-41.25-42.375-37.375-15.5625-60-15.5625c-22.25 0-42.1875 5.1875-59.8125 15.5625s-31.40625 24.5-41.34375 42.375-14.90625 38.4375-14.90625 61.6875c0 23.375 4.96875 44.25 14.90625 62.625s23.71875 32.78125 41.34375 43.21875 37.5625 15.65625 59.8125 15.65625ZM2544.4375 810.5c-27.125 0-51.46875-5.65625-73.03125-16.96875s-38.84375-26.9375-51.84375-46.875-20.25-42.71875-21.75-68.34375V571.25c1.5-25.875 8.875-48.75 22.125-68.625s30.6875-35.40625 52.3125-46.59375 45.6875-16.78125 72.1875-16.78125c32.625 0 62 8.25 88.125 24.75s46.78125 38.75 61.96875 66.75 22.78125 59.625 22.78125 94.875c0 34.75-7.5625 66.09375-22.6875 94.03125s-35.78125 50.0625-61.96875 66.375S2577.0625 810.5 2544.4375 810.5Zm-11.25-63.9375c22.5 0 42.3125-5.15625 59.4375-15.46875s30.59375-24.65625 40.40625-43.03125S2647.75 648.625 2647.75 624.875c0-23.875-4.90625-44.96875-14.71875-63.28125s-23.25-32.625-40.3125-42.9375S2556 503.1875 2533.75 503.1875s-41.9375 5.15625-59.0625 15.46875-30.4375 24.625-39.9375 42.9375-14.25 39.46875-14.25 63.46875c0 23.75 4.71875 44.78125 14.15625 63.09375s22.6875 32.625 39.75 42.9375 36.65625 15.46875 58.78125 15.46875ZM2356.9375 803V267.5h67.6875v266.625l-12.5625 86.0625 12.5625 87.1875V803h-67.6875Zm427.25 0V446.75h67.6875V803h-67.6875Zm33.75-427.3125c-12.125 0-22.21875-4.1875-30.28125-12.5625s-12.09375-18.625-12.09375-30.75c0-12.25 4.03125-22.5 12.09375-30.75s18.15625-12.375 30.28125-12.375c12.625 0 22.90625 4.125 30.84375 12.375s11.90625 18.5 11.90625 30.75c0 12.125-3.96875 22.375-11.90625 30.75s-18.21875 12.5625-30.84375 12.5625ZM3193.0625 803V595.625c0-27.375-8.40625-49.75-25.21875-67.125s-38.67187-26.0625-65.57813-26.0625c-18.3125 0-34.47656 3.96875-48.49218 11.90625-14.01563 7.9375-24.99219 18.90625-32.92969 32.90625s-11.90625 30.0625-11.90625 48.1875l-28.125-15.75c0-27.125 6.09375-51.21875 18.28125-72.28125s28.94922-37.6875 50.28516-49.875c21.33593-12.1875 45.49218-18.28125 72.46875-18.28125 26.97656 0 50.93359 6.71875 71.87109 20.15625 20.9375 13.4375 37.34375 31.0625 49.21875 52.875S3260.75 557.375 3260.75 582.125V803h-67.6875Zm-251.8125 0V446.75h67.6875V803H2941.25Zm548.5625 156.75c-36.75 0-69.1875-6.71875-97.3125-20.15625S3341.6875 907.125 3324.4375 882.5l44.0625-44.0625c14.25 18.375 31.375 32.4375 51.375 42.1875s43.75 14.625 71.25 14.625c36.375 0 65.21875-9.5625 86.53125-28.6875s31.96875-45.125 31.96875-78V700.25L3622 620.375l-12.375-79.875v-93.75h67.6875v341.8125c0 34.25-7.875 64.15625-23.625 89.71875s-37.71875 45.53125-65.90625 59.90625-60.84375 21.5625-97.96875 21.5625Zm0-162.375c-32.375 0-61.5-7.8125-87.375-23.4375s-46.25-37.0625-61.125-64.3125S3319 651.75 3319 617.75c0-33.875 7.40625-64.25 22.21875-91.125s35.15625-48.15625 61.03125-63.84375 54.9375-23.53125 87.1875-23.53125c28 0 52.78125 5.53125 74.34375 16.59375s38.6875 26.4375 51.375 46.125S3634.875 544.75 3636.25 571.25v94.3125c-1.5 26-8.6875 48.9375-21.5625 68.8125s-30.03125 35.34375-51.46875 46.40625-45.90625 16.59375-73.40625 16.59375Zm13.125-63.9375c22.125 0 41.53125-4.78125 58.21875-14.34375s29.625-22.96875 38.8125-40.21875 13.78125-37.4375 13.78125-60.5625c0-23-4.625-43.09375-13.875-60.28125s-22.21875-30.625-38.90625-40.3125-36.15625-14.53125-58.40625-14.53125c-22.375 0-42.15625 4.84375-59.34375 14.53125s-30.59375 23.125-40.21875 40.3125-14.4375 37.21875-14.4375 60.09375c0 22.5 4.84375 42.5 14.53125 60s23.125 31.09375 40.3125 40.78125 37.03125 14.53125 59.53125 14.53125ZM3930.75 810.5c-35.625 0-67.625-8.0625-96-24.1875s-50.8125-38.28125-67.3125-66.46875-24.75-59.90625-24.75-95.15625c0-35.125 8.09375-66.65625 24.28125-94.59375s38.21875-50.0625 66.09375-66.375S3892 439.25 3926.25 439.25c32.875 0 61.9375 7.53125 87.1875 22.59375S4058.53125 497.625 4072.96875 524s21.65625 56.5 21.65625 90.375c0 5-.3125 10.375-.9375 16.125s-1.625 12.25-3 19.5H3790.125v-56.0625h264.75l-24.75 21.5625c-.25-23.875-4.5625-44.25-12.9375-61.125s-20.3125-29.90625-35.8125-39.09375S3947.0625 501.5 3924.9375 501.5c-23.25 0-43.53125 5.03125-60.84375 15.09375s-30.75 24.09375-40.3125 42.09375S3809.4375 598 3809.4375 622.625c0 24.875 5.03125 46.6875 15.09375 65.4375s24.28125 33.28125 42.65625 43.59375 39.625 15.46875 63.75 15.46875c19.875 0 38.25-3.5625 55.125-10.6875s31.1875-17.625 42.9375-31.5l43.3125 43.875c-17 20-37.84375 35.28125-62.53125 45.84375S3958.75 810.5 3930.75 810.5Z"/></g></svg>
