<svg viewBox="0 0 891 247" fill="none" xmlns="http://www.w3.org/2000/svg"><path d="M286.934 181.457L259.464 73.4369H280.444L303.284 168.337H305.444L328.284 73.4369H349.274L321.804 181.457H286.934Z" fill="currentColor"></path><path d="M390.004 183.617C382.394 183.617 375.674 181.997 369.864 178.757C364.054 175.517 359.524 170.937 356.284 165.027C353.044 159.117 351.424 152.147 351.424 144.117V142.267C351.424 134.247 353.014 127.277 356.204 121.357C359.394 115.447 363.864 110.867 369.624 107.627C375.384 104.387 382.074 102.767 389.684 102.767C397.194 102.767 403.724 104.437 409.284 107.787C414.844 111.127 419.164 115.757 422.244 121.677C425.334 127.597 426.874 134.457 426.874 142.277V148.917H371.164C371.364 154.167 373.324 158.437 377.024 161.727C380.724 165.017 385.254 166.667 390.604 166.667C396.054 166.667 400.064 165.487 402.644 163.117C405.214 160.747 407.174 158.127 408.504 155.247L424.394 163.577C422.954 166.257 420.874 169.157 418.144 172.297C415.414 175.437 411.794 178.107 407.264 180.317C402.764 182.517 397.004 183.617 390.004 183.617ZM371.334 134.397H407.134C406.724 129.977 404.944 126.427 401.814 123.747C398.674 121.077 394.584 119.737 389.544 119.737C384.294 119.737 380.134 121.077 377.044 123.747C373.964 126.427 372.054 129.977 371.334 134.397Z" fill="currentColor"></path><path d="M441.084 181.457V104.917H460.214V113.247H462.994C464.334 110.677 466.544 108.437 469.634 106.537C472.724 104.637 476.784 103.687 481.824 103.687C487.274 103.687 491.644 104.747 494.944 106.847C498.234 108.957 500.754 111.707 502.504 115.107H505.284C507.034 111.817 509.504 109.087 512.694 106.927C515.884 104.767 520.414 103.687 526.274 103.687C531.004 103.687 535.304 104.687 539.154 106.697C543.004 108.707 546.094 111.737 548.414 115.797C550.724 119.857 551.884 124.977 551.884 131.147V181.447H532.444V132.527C532.444 128.307 531.364 125.147 529.204 123.037C527.044 120.927 524.004 119.877 520.104 119.877C515.684 119.877 512.254 121.297 509.844 124.117C507.424 126.947 506.214 130.987 506.214 136.227V181.437H486.774V132.517C486.774 128.297 485.694 125.137 483.534 123.027C481.374 120.917 478.334 119.867 474.434 119.867C470.014 119.867 466.584 121.287 464.174 124.107C461.754 126.937 460.544 130.977 460.544 136.217V181.427H441.084V181.457Z" fill="currentColor"></path><path d="M604.644 183.617C597.034 183.617 590.314 181.997 584.504 178.757C578.694 175.517 574.164 170.937 570.924 165.027C567.684 159.117 566.064 152.147 566.064 144.117V142.267C566.064 134.247 567.654 127.277 570.844 121.357C574.034 115.447 578.504 110.867 584.264 107.627C590.024 104.387 596.714 102.767 604.324 102.767C611.834 102.767 618.364 104.437 623.924 107.787C629.484 111.127 633.804 115.757 636.884 121.677C639.974 127.597 641.514 134.457 641.514 142.277V148.917H585.804C586.004 154.167 587.964 158.437 591.664 161.727C595.364 165.017 599.894 166.667 605.244 166.667C610.694 166.667 614.704 165.487 617.284 163.117C619.854 160.747 621.814 158.127 623.144 155.247L639.034 163.577C637.594 166.257 635.504 169.157 632.784 172.297C630.054 175.437 626.434 178.107 621.904 180.317C617.404 182.517 611.644 183.617 604.644 183.617ZM585.974 134.397H621.774C621.364 129.977 619.584 126.427 616.454 123.747C613.314 121.077 609.224 119.737 604.184 119.737C598.934 119.737 594.774 121.077 591.684 123.747C588.604 126.427 586.694 129.977 585.974 134.397Z" fill="currentColor"></path><path d="M682.574 181.457C677.534 181.457 673.444 179.887 670.304 176.747C667.164 173.607 665.594 169.417 665.594 164.167V120.957H646.464V104.907H665.594V81.1469H685.034V104.907H706.024V120.957H685.044V160.767C685.044 163.857 686.484 165.397 689.364 165.397H704.174V181.447H682.574V181.457Z" fill="currentColor"></path><path d="M720.534 181.457V104.917H739.664V113.557H742.444C743.574 110.467 745.454 108.207 748.074 106.767C750.694 105.327 753.754 104.607 757.254 104.607H766.514V121.887H756.944C752.004 121.887 747.944 123.197 744.754 125.817C741.564 128.437 739.974 132.477 739.974 137.927V181.437H720.534V181.457Z" fill="currentColor"></path><path d="M788.274 95.9769C784.774 95.9769 781.814 94.8469 779.404 92.5869C776.984 90.3269 775.774 87.3369 775.774 83.6369C775.774 79.9369 776.984 76.9469 779.404 74.6869C781.824 72.4269 784.774 71.2969 788.274 71.2969C791.874 71.2969 794.854 72.4269 797.224 74.6869C799.594 76.9469 800.774 79.9369 800.774 83.6369C800.774 87.3369 799.594 90.3269 797.224 92.5869C794.854 94.8469 791.874 95.9769 788.274 95.9769Z" fill="#a086ff"></path><path d="M797.994 104.927H778.554V181.467H797.994V104.927Z" fill="currentColor"></path><path d="M852.464 183.617C845.054 183.617 838.344 182.077 832.324 178.987C826.304 175.897 821.544 171.427 818.054 165.567C814.554 159.707 812.804 152.607 812.804 144.277V142.117C812.804 133.787 814.554 126.687 818.054 120.827C821.554 114.967 826.314 110.487 832.324 107.397C838.344 104.307 845.054 102.767 852.464 102.767C859.764 102.767 866.044 104.057 871.294 106.627C876.544 109.197 880.784 112.717 884.024 117.197C887.264 121.667 889.394 126.737 890.424 132.397L871.594 136.407C871.184 133.317 870.254 130.547 868.814 128.077C867.374 125.607 865.344 123.657 862.714 122.217C860.094 120.777 856.824 120.057 852.914 120.057C849.004 120.057 845.484 120.907 842.344 122.607C839.204 124.307 836.734 126.827 834.934 130.167C833.134 133.507 832.234 137.597 832.234 142.437V143.977C832.234 148.817 833.134 152.907 834.934 156.247C836.734 159.587 839.204 162.107 842.344 163.807C845.484 165.507 849.004 166.357 852.914 166.357C858.774 166.357 863.224 164.837 866.264 161.807C869.294 158.777 871.224 154.787 872.054 149.847L890.884 154.317C889.544 159.767 887.254 164.737 884.014 169.207C880.774 173.677 876.534 177.207 871.284 179.777C866.044 182.337 859.764 183.617 852.464 183.617Z" fill="currentColor"></path><path d="M147.915 120.067L208.235 120.847C211.795 120.897 213.535 125.207 210.995 127.707L101.065 236.007C99.7447 237.307 97.5847 235.857 98.2847 234.147L144.155 122.567C144.785 121.037 146.275 120.047 147.915 120.067Z" fill="url(#paint0_linear_1431_399)"></path><path d="M2.54457 60.5173L84.1846 28.5173C85.4846 28.0073 86.9646 28.2173 88.0746 29.0573L135.715 65.3472C137.125 66.4172 137.665 68.2973 137.035 69.9473L71.2746 243.947C69.9546 247.437 65.0046 247.387 63.7546 243.877L0.234575 65.5972C-0.495425 63.5572 0.534572 61.3073 2.54457 60.5173Z" fill="url(#paint1_linear_1431_399)"></path><path d="M120.125 14.4268L156.205 0.286772C159.435 -0.983228 162.645 2.1868 161.415 5.4368L149.935 35.7968C149.025 38.1968 146.125 39.1368 143.985 37.7268L119.385 21.5068C116.675 19.7168 117.105 15.6168 120.125 14.4268Z" fill="url(#paint2_linear_1431_399)"></path><defs><linearGradient id="paint0_linear_1431_399" x1="155.173" y1="293.595" x2="155.173" y2="-43.2396" gradientUnits="userSpaceOnUse"><stop stop-color="#7232F5"></stop><stop offset="0.645" stop-color="#A086FF"></stop></linearGradient><linearGradient id="paint1_linear_1431_399" x1="68.6468" y1="293.595" x2="68.6468" y2="-43.239" gradientUnits="userSpaceOnUse"><stop stop-color="#7232F5"></stop><stop offset="0.6229" stop-color="#A086FF"></stop></linearGradient><linearGradient id="paint2_linear_1431_399" x1="139.635" y1="293.595" x2="139.635" y2="-43.2395" gradientUnits="userSpaceOnUse"><stop stop-color="#7232F5"></stop><stop offset="0.6229" stop-color="#A086FF"></stop></linearGradient></defs></svg>
