<svg xmlns="http://www.w3.org/2000/svg" viewBox="0 0 640 480"><g fill="none" fill-rule="evenodd"><path fill="currentColor" fill-opacity=".05" d="M0 0h640v480H0z"/><path fill="currentColor" fill-opacity=".3" fill-rule="nonzero" d="M219 181.818182C219 169.768333 228.785776 160 240.857143 160h160.285714C413.214224 160 423 169.768333 423 181.818182v116.363636C423 310.231667 413.214224 320 401.142857 320H240.857143C228.785776 320 219 310.231667 219 298.181818V181.818182Zm14.571429 97.551515v18.812121c0 4.014546 3.264 7.272727 7.285714 7.272727h160.285714c4.023789 0 7.285714-3.25611 7.285714-7.272727v-18.812121l-26.131428-26.075152c-5.689027-5.671823-14.905259-5.671823-20.594286 0l-8.548571 8.523637 9.422857 9.40606c1.949202 1.813048 2.751563 4.543569 2.092317 7.120378-.659247 2.576808-2.674958 4.588926-5.256368 5.246997-2.58141.658072-5.316806-.142859-7.133092-2.088587l-50.125714-50.026666c-5.689027-5.671823-14.905259-5.671823-20.594286 0l-47.988571 47.90303v-.009697Zm98.357142-75.733333c0-6.024925 4.892889-10.909091 10.928572-10.909091 6.035683 0 10.928571 4.884166 10.928571 10.909091 0 6.024924-4.892888 10.909091-10.928571 10.909091s-10.928572-4.884167-10.928572-10.909091Z"/></g></svg>
